<svg xmlns="http://www.w3.org/2000/svg" width="32" height="32"><g font-family="sans-serif" font-size="45.121" font-weight="400" letter-spacing="0" word-spacing="0" style="line-height:125%"><path style="line-height:125%;text-indent:0;text-align:start;text-decoration-line:none;text-decoration-style:solid;text-decoration-color:#000;text-transform:none;block-progression:tb;isolation:auto;mix-blend-mode:normal" d="M4.5 1022.361a.5.5 0 0 0-.5.5v27a.5.5 0 0 0 .5.5h15a.5.5 0 0 0 .5-.5v-12.847a.5.5 0 1 0-1 0v12.347H5v-26h14v5.323a.5.5 0 1 0 1 0v-5.823a.5.5 0 0 0-.5-.5h-15z" color="#000" font-size="medium" overflow="visible" transform="translate(0 -1020.362)"/><path fill-rule="evenodd" style="line-height:125%;text-indent:0;text-align:start;text-decoration-line:none;text-decoration-style:solid;text-decoration-color:#000;text-transform:none;block-progression:tb;isolation:auto;mix-blend-mode:normal" d="M10 1024.361v1h4v-1h-4z" color="#000" font-size="medium" overflow="visible" transform="translate(0 -1020.362)"/><path fill="#25b39e" d="M6 1026.362v19h12v-6.365l-1.291 1.758c-.859 1.168-2.711.56-2.709-.89v-1.503h-1.504a1.5 1.5 0 0 1-1.5-1.5v-8a1.5 1.5 0 0 1 1.5-1.5H18v-1z" color="#000" overflow="visible" style="isolation:auto;mix-blend-mode:normal" transform="translate(0 -1020.362)"/><path style="isolation:auto;mix-blend-mode:normal" d="M13 1047.362a1 1 0 0 1-1 1 1 1 0 0 1-1-1 1 1 0 0 1 1-1 1 1 0 0 1 1 1z" color="#000" overflow="visible" transform="translate(0 -1020.362)"/><path style="line-height:125%;text-indent:0;text-align:start;text-decoration-line:none;text-decoration-style:solid;text-decoration-color:#000;text-transform:none;block-progression:tb;isolation:auto;mix-blend-mode:normal" d="M12.496 1028.361a.5.5 0 0 0-.5.5v8a.5.5 0 0 0 .5.5H15v2.502a.5.5 0 0 0 .902.297l2.059-2.799h7.535a.5.5 0 0 0 .5-.5v-8a.5.5 0 0 0-.5-.5h-13zm.5 1h12v7H17.71a.5.5 0 0 0-.402.205L16 1038.342v-1.48a.5.5 0 0 0-.5-.5h-2.504v-7z" color="#000" font-size="medium" overflow="visible" transform="translate(0 -1020.362)"/><path fill="#f8b84e" style="isolation:auto;mix-blend-mode:normal" d="M13.996 1030.362v5H24v-5z" color="#000" overflow="visible" transform="translate(0 -1020.362)"/><g style="line-height:125%;-inkscape-font-specification:'Montserrat Bold'"><path d="M17.155 1030.355c-.852 0-1.392.575-1.392 1.499 0 .93.54 1.505 1.392 1.505.852 0 1.385-.575 1.385-1.505 0-.924-.533-1.499-1.385-1.499zm-.348 4.993h1.15l3.552-4.979h-1.15l-3.552 4.979zm.348-4.34c.376 0 .604.32.604.846 0 .525-.228.845-.604.845s-.604-.32-.604-.845c0-.526.228-.846.604-.846zm4.048 1.357c-.852 0-1.392.575-1.392 1.499 0 .93.54 1.512 1.392 1.512.853 0 1.385-.582 1.385-1.512 0-.924-.532-1.499-1.385-1.499zm0 .653c.377 0 .604.32.604.846 0 .532-.227.852-.604.852-.376 0-.603-.32-.603-.852 0-.526.227-.846.603-.846z" font-family="Montserrat" font-size="7.102" font-weight="700" style="-inkscape-font-specification:'Montserrat Bold'" transform="translate(0 -1020.362)"/></g><path style="line-height:normal;text-indent:0;text-align:start;text-decoration-line:none;text-decoration-style:solid;text-decoration-color:#000;text-transform:none;block-progression:tb;isolation:auto;mix-blend-mode:normal" d="M21 1027.361h1v-1h-1zm2 0h1v-1h-1zm2 0h1v-1h-1zm2-.5v.5h1v-.999h-1zm0 2.5h1v-1h-1zm0 2h1v-1h-1zm0 2h1v-1h-1zm0 2h1v-1h-1zm0 2h1v-1h-1zm-6 2h1v-1h-1zm2 0h1v-1h-1zm2 0h1v-1h-1zm2-.5v.5l1 .001v-1h-1z" color="#000" font-size="medium" letter-spacing="normal" overflow="visible" transform="translate(0 -1020.362)" word-spacing="normal"/></g></svg>