<svg xmlns="http://www.w3.org/2000/svg" enable-background="new 0 0 512 512" viewBox="0 0 512 512"><path fill="#8bdec5" d="M393.809,112.586l-27.443,21.909c-2.114,1.687-5.223,0.168-5.223-2.551v-19.358
		c-11.038,0-19.986-9.029-19.986-20.167V64.889H94.528c-29.017,0-52.624,23.607-52.624,52.624v234.108
		c0,29.017,23.607,52.624,52.624,52.624h50.984c-2.993,0-5.835-1.313-7.775-3.593c-1.94-2.279-2.783-5.295-2.306-8.249
		l11.884-73.532c1.283-7.934,6.341-14.777,13.531-18.306l54.154-26.574c4.097-2.012,9.033-1.058,12.088,2.335l19.459,21.613
		c0.108-0.004,0.214-0.014,0.324-0.014c0.017,0,0.035,0,0.052,0c0.13,0,0.256,0.01,0.385,0.015l19.46-21.614
		c1.68-1.865,3.891-2.967,6.197-3.284c1.948-0.278,4.082,0.041,5.914,0.959l54.136,26.566c7.191,3.529,12.249,10.372,13.532,18.306
		l11.884,73.532c0.478,2.955-0.365,5.971-2.306,8.249c-1.941,2.278-4.783,3.593-7.775,3.593h51.467
		c29.017,0,52.624-23.607,52.624-52.624c0,0-0.088-237.487-0.246-239.146c-0.685,0.071-1.38,0.11-2.084,0.11h-56.298V112.586z
		 M340.357,131.761c-1.105,10.607-4.54,20.744-10.211,30.133c-3.358,5.574-7.446,10.77-12.193,15.508
		c0.417,3.196,0.652,6.424,0.652,9.659c0,19.279-7.463,41.028-19.963,58.18c-14.284,19.599-32.651,30.394-51.715,30.394
		c-17.665,0-35.022-9.476-48.872-26.683c-12.103-15.036-20.23-34.327-22.297-52.927c-0.291-2.632-0.452-5.22-0.489-7.707
		c0-0.019-0.004-0.038-0.004-0.057c0-0.002,0.001-0.02,0.001-0.03c0-0.018-0.002-0.039-0.002-0.058
		c-0.006-0.513,0.037-1.013,0.104-1.506c0.407-4.78,2.398-19.663,11.728-34.958c9.471-15.528,28.343-34.156,64.843-37.142
		c3.275-0.236,6.672-0.511,9.991-0.35c4.077,0.408,8.292,0.883,12.369,1.342c9.958,1.12,20.254,2.278,28.562,2.475
		c10.798,0.254,13.647-1.284,13.946-1.466c1.841-1.55,4.171-2.402,6.578-2.402c5.031,0,9.776,2.063,13.018,5.659
		C339.364,123.109,340.805,127.459,340.357,131.761z"/><path fill="#ffddcf" d="M312.958,182.009c-14.558,12.429-33.705,20.43-53.91,22.526c-3.649,0.381-7.394,0.574-11.126,0.574h-61.935
		c-5.64,0-10.212-4.572-10.212-10.212c0-0.938,0.127-1.847,0.364-2.71c-0.527-1.186-0.832-2.493-0.869-3.869
		c0.037,2.488,0.199,5.076,0.489,7.707c2.067,18.6,10.193,37.891,22.297,52.927c13.849,17.207,31.206,26.683,48.872,26.683
		c19.063,0,37.43-10.794,51.715-30.394c12.5-17.152,19.963-38.901,19.963-58.18c0-3.235-0.236-6.464-0.652-9.659
		C316.361,178.99,314.696,180.527,312.958,182.009z"/><path fill="#fce677" d="M323.386,114.165c-2.408,0-4.738,0.851-6.578,2.402c-0.299,0.183-3.148,1.721-13.946,1.466
		c-8.307-0.196-18.604-1.355-28.562-2.475c-4.077-0.459-8.292-0.933-12.369-1.342c-3.32-0.162-6.715,0.116-9.991,0.35
		c-36.5,2.986-55.371,21.613-64.843,37.142c-9.331,15.296-11.321,30.178-11.728,34.958c-0.079,0.917-0.099,1.459-0.101,1.564
		c0,0.009-0.001,0.028-0.001,0.03c0,0.019,0.003,0.038,0.004,0.057c0.037,1.377,0.342,2.684,0.869,3.869
		c-0.237,0.863-0.364,1.772-0.364,2.71c0,5.64,4.572,10.212,10.212,10.212h61.935c3.731,0,7.477-0.193,11.126-0.574
		c20.206-2.096,39.353-10.097,53.91-22.526c1.737-1.482,3.403-3.019,4.995-4.607c4.747-4.737,8.835-9.933,12.193-15.508
		c5.671-9.389,9.106-19.526,10.211-30.133c0.447-4.301-0.994-8.653-3.953-11.936C333.162,116.228,328.417,114.165,323.386,114.165z"/><path fill="#988fc4" d="M356.124,400.653c1.94-2.278,2.784-5.295,2.306-8.249l-11.884-73.532c-1.283-7.934-6.341-14.777-13.532-18.306
		L278.878,274c-1.832-0.917-3.965-1.235-5.914-0.959c-2.307,0.318-4.518,1.419-6.197,3.284l-19.46,21.614
		c4.229,0.159,7.944,2.911,9.298,6.953l17.659,52.731c1.202,3.589,0.32,7.549-2.291,10.287l-17.659,18.531
		c-2.007,2.106-4.698,3.168-7.394,3.168c-2.523,0-5.051-0.929-7.026-2.802l-17.649-16.738c-2.854-2.706-3.9-6.812-2.689-10.554
		l17.649-54.525c1.324-4.092,5.066-6.895,9.34-7.053l-19.459-21.613c-3.054-3.393-7.991-4.347-12.088-2.335l-54.154,26.574
		c-7.19,3.529-12.249,10.372-13.531,18.306l-11.884,73.532c-0.477,2.955,0.366,5.971,2.306,8.249
		c1.94,2.278,4.782,3.593,7.775,3.593h202.835C351.341,404.246,354.182,402.932,356.124,400.653z"/><path fill="#f5f5fc" d="M237.207 304.994l-17.649 54.525c-1.211 3.742-.165 7.848 2.689 10.554l17.649 16.738c1.975 1.873 4.502 2.802 7.026 2.802 2.696 0 5.388-1.062 7.394-3.168l17.659-18.531c2.611-2.74 3.492-6.699 2.291-10.287l-17.659-52.731c-1.353-4.042-5.068-6.794-9.298-6.953-.129-.005-.256-.015-.385-.015-.017 0-.035 0-.052 0-.109.001-.215.01-.324.014C242.273 298.098 238.53 300.902 237.207 304.994zM450.109 15h-88.967c-11.038 0-19.986 9.029-19.986 20.167v29.722 27.529c0 11.138 8.948 20.167 19.986 20.167v19.358c0 2.719 3.11 4.238 5.223 2.551l27.443-21.909h56.301c.704 0 1.399-.039 2.084-.11 10.058-1.052 17.901-9.63 17.901-20.057V35.167C470.094 24.029 461.147 15 450.109 15zM433.502 53.581h.01c5.64 0 10.212 4.572 10.212 10.212s-4.572 10.212-10.212 10.212c-5.639 0-10.217-4.572-10.217-10.212S427.863 53.581 433.502 53.581zM405.635 53.581h.01c5.64 0 10.212 4.572 10.212 10.212s-4.572 10.212-10.212 10.212c-5.639 0-10.217-4.572-10.217-10.212S399.996 53.581 405.635 53.581zM367.561 63.793c0-5.64 4.568-10.212 10.207-10.212h.01c5.64 0 10.212 4.572 10.212 10.212s-4.572 10.212-10.212 10.212S367.561 69.433 367.561 63.793z"/><path fill="#de8bae" d="M405.645 74.005c5.64 0 10.212-4.572 10.212-10.212s-4.572-10.212-10.212-10.212h-.01c-5.639 0-10.207 4.572-10.207 10.212S400.006 74.005 405.645 74.005zM433.512 74.005c5.64 0 10.212-4.572 10.212-10.212s-4.572-10.212-10.212-10.212h-.01c-5.639 0-10.207 4.572-10.207 10.212S427.873 74.005 433.512 74.005zM377.778 74.005c5.64 0 10.212-4.572 10.212-10.212s-4.572-10.212-10.212-10.212h-.01c-5.639 0-10.207 4.572-10.207 10.212S372.138 74.005 377.778 74.005z"/><path fill="#9999af" d="M427.383 429.71H153.759c5.191 7.022 8.268 15.717 8.268 25.124 0 9.407-3.077 18.102-8.268 25.124h273.624c13.816 0 25.056-11.24 25.056-25.056v-.136C452.439 440.95 441.199 429.71 427.383 429.71zM78.274 454.834c0-9.406 3.077-18.102 8.268-25.124H66.961c-13.816 0-25.056 11.24-25.056 25.056v.136c0 13.816 11.24 25.056 25.056 25.056h19.581C81.351 472.936 78.274 464.24 78.274 454.834z"/><path fill="#ff5384" d="M162.028,454.834c0-9.406-3.077-18.102-8.268-25.124c-7.64-10.334-19.86-17.042-33.609-17.042
		c-13.749,0-25.97,6.708-33.609,17.042c-5.191,7.022-8.268,15.717-8.268,25.124c0,9.407,3.077,18.102,8.268,25.124
		c7.64,10.333,19.86,17.042,33.609,17.042c13.749,0,25.97-6.708,33.609-17.042C158.951,472.936,162.028,464.24,162.028,454.834z"/></svg>