<svg xmlns="http://www.w3.org/2000/svg" enable-background="new 0 0 67 67" viewBox="0 0 67 67"><rect width="2.817" height="1" x="6.281" y="3.771" fill="#F6968A"/><rect width="2.817" height="1" x="12.257" y="3.771" fill="#3EBDA7"/><rect width="2.817" height="1" x="18.232" y="3.771" fill="#48A0D9"/><rect width="25.34" height="30.05" x="37.742" y="12.517" fill="#F6968A"/><rect width="25.34" height="30.05" x="7.082" y="12.517" fill="#BDD7F0"/><circle cx="18.394" cy="25.316" r="2.581" fill="#FFF"/><polygon fill="#FFF" points="36.16 41.089 44.336 29.2 49.222 33.333 54.824 26.064 61.499 30.969 61.499 41.089"/><circle cx="49.052" cy="25.316" r="2.581" fill="#FFF"/><path fill="#223059" d="M66.00073,0.99895h-65C1.0005,11.28031,0.99938,61.08889,0.99927,66.0009h65
			C65.99927,65.83884,66.00044,13.88279,66.00073,0.99895z M2.00073,1.99895h63v4.54346h-63V1.99895z M64.99927,65.0009h-63V7.54241
			h63V65.0009z"/><rect width="22.607" height="1" x="38.114" y="3.771" fill="#223059"/><rect width="15.007" height="1" x="5.502" y="44.984" fill="#223059"/><rect width="13.485" height="1" x="36.16" y="44.984" fill="#223059"/><rect width="25.339" height="1" x="5.502" y="48.886" fill="#223059"/><rect width="25.339" height="1" x="36.16" y="48.886" fill="#223059"/><rect width="15.007" height="1" x="5.502" y="52.787" fill="#223059"/><rect width="13.485" height="1" x="36.16" y="52.787" fill="#223059"/><rect width="25.339" height="1" x="5.502" y="56.687" fill="#223059"/><rect width="25.339" height="1" x="36.16" y="56.687" fill="#223059"/><rect width="15.007" height="1" x="5.502" y="60.589" fill="#223059"/><rect width="13.485" height="1" x="36.16" y="60.589" fill="#223059"/><path fill="#223059" d="M31.34204,41.58879v-31.0498H5.00171v31.0498C14.21649,41.58879,22.15573,41.58879,31.34204,41.58879z
			 M6.45239,40.58879l7.32373-10.65039l4.10498,3.47193l-1.57227,2.10474c-0.16553,0.22119-0.12012,0.53467,0.10107,0.69971
			c0.22154,0.16616,0.53513,0.11919,0.69971-0.10107l1.85016-2.47681l5.30316-6.88062l6.07813,4.46582v9.3667H6.45239z
			 M30.34204,11.53899v18.44324l-5.88086-4.32117c-0.21777-0.16113-0.52637-0.1167-0.69189,0.09766l-5.28271,6.85401
			l-4.48682-3.79444c-0.10742-0.09082-0.24854-0.13184-0.38916-0.11377c-0.14014,0.01855-0.26563,0.0957-0.3457,0.2124
			L6.00171,39.47918V11.53899H30.34204z"/><path fill="#223059" d="M17.63599 27.55217c1.69873 0 3.08105-1.38232 3.08105-3.08105s-1.38232-3.08105-3.08105-3.08105-3.08105 1.38232-3.08105 3.08105S15.93726 27.55217 17.63599 27.55217zM17.63599 22.39006c1.14746 0 2.08105.93359 2.08105 2.08105s-.93359 2.08105-2.08105 2.08105-2.08105-.93359-2.08105-2.08105S16.48853 22.39006 17.63599 22.39006zM35.66187 41.58879c9.21461 0 17.15371 0 26.33984 0v-31.0498H35.66187C35.66187 27.85932 35.66187 2.07277 35.66187 41.58879zM37.11108 40.58879l7.32373-10.6499 4.10449 3.47144-1.57227 2.10474c-.16553.22119-.12012.53467.10107.69971.22154.16616.53513.11919.69971-.10107l1.85016-2.47681 5.30316-6.88062 6.07813 4.46582v9.3667H37.11108zM61.00171 11.53899v18.44434l-5.88232-4.32227c-.21777-.16113-.52686-.1167-.69189.09766l-5.28271 6.85401-4.48633-3.79444c-.10742-.09082-.24951-.13184-.38916-.11377-.14014.01855-.26563.0957-.3457.2124l-7.26172 10.56006V11.53899H61.00171z"/><path fill="#223059" d="M48.29468,27.55217c1.69873,0,3.08105-1.38232,3.08105-3.08105s-1.38232-3.08105-3.08105-3.08105
			c-1.69922,0-3.08154,1.38232-3.08154,3.08105S46.59546,27.55217,48.29468,27.55217z M48.29468,22.39006
			c1.14746,0,2.08105,0.93359,2.08105,2.08105s-0.93359,2.08105-2.08105,2.08105c-1.14795,0-2.08154-0.93359-2.08154-2.08105
			S47.14673,22.39006,48.29468,22.39006z"/></svg>